/* XPM */
static char *_cabb66fa2044913c80306722718a8fekW6bvmrAiLHPLkrj[] = {
/* columns rows colors chars-per-pixel */
"64 64 169 2 ",
"   c None",
".  c #010000",
"X  c #0A0603",
"o  c #0E0905",
"O  c #130B06",
"+  c #190F06",
"@  c #150D09",
"#  c #180F09",
"$  c #1D1106",
"%  c #1D110B",
"&  c #231406",
"*  c #2A1807",
"=  c #23150C",
"-  c #2B1A0C",
";  c #341E0A",
":  c #271811",
">  c #2C1B11",
",  c #321E13",
"<  c #37200E",
"1  c #3B230D",
"2  c #362114",
"3  c #3C2414",
"4  c #3D261A",
"5  c #42260B",
"6  c #47290C",
"7  c #4B2C0D",
"8  c #512F0C",
"9  c #56320E",
"0  c #58330E",
"q  c #422711",
"w  c #472A11",
"e  c #4B2D14",
"r  c #402718",
"t  c #442A1B",
"y  c #4A2D1C",
"u  c #4F311F",
"i  c #553215",
"p  c #5C3512",
"a  c #5F3817",
"s  c #53321C",
"d  c #5A361C",
"f  c #5D381E",
"g  c #643A15",
"h  c #683D17",
"j  c #643B1C",
"k  c #6A3E19",
"l  c #4C2F20",
"z  c #4D3021",
"x  c #543422",
"c  c #5A3722",
"v  c #5D3924",
"b  c #5E3A28",
"n  c #633C23",
"m  c #633D29",
"M  c #6D401A",
"N  c #72431D",
"B  c #6D4223",
"V  c #67402C",
"C  c #6C432C",
"Z  c #754621",
"A  c #784720",
"S  c #774825",
"D  c #7C4A23",
"F  c #72462B",
"G  c #77492B",
"H  c #7B4B2C",
"J  c #734730",
"K  c #754831",
"L  c #7C4C33",
"P  c #824D26",
"I  c #824E2A",
"U  c #855027",
"Y  c #865029",
"T  c #8C542C",
"R  c #91572F",
"E  c #91582F",
"W  c #804F33",
"Q  c #855233",
"!  c #8C5534",
"~  c #8C563A",
"^  c #8F583C",
"/  c #905733",
"(  c #945932",
")  c #9A5D35",
"_  c #935B3C",
"`  c #9A5E3A",
"'  c #9F6037",
"]  c #9F613A",
"[  c #A3633A",
"{  c #A9673D",
"}  c #AC683F",
"|  c #A56644",
" . c #A86742",
".. c #AE6A41",
"X. c #AD6B49",
"o. c #B36D44",
"O. c #B36E4A",
"+. c #B77046",
"@. c #B97147",
"#. c #B7714C",
"$. c #BC7349",
"%. c #BE7651",
"&. c #C0764C",
"*. c #C5794E",
"=. c #C87A4F",
"-. c #C17751",
";. c #C57A53",
":. c #C97C52",
">. c #CB7C52",
",. c #CA7C51",
"<. c #CD7D52",
"1. c #CC7D52",
"2. c #CD7E53",
"3. c #CE7E53",
"4. c #CE7F53",
"5. c #C87C55",
"6. c #CF7F54",
"7. c #CD7F57",
"8. c #CE7F57",
"9. c #C87A50",
"0. c #D07F54",
"q. c #D18055",
"w. c #D08155",
"e. c #D28155",
"r. c #D38256",
"t. c #D28257",
"y. c #D48357",
"u. c #D58357",
"i. c #D68457",
"p. c #D28259",
"a. c #D58359",
"s. c #D4835A",
"d. c #D78559",
"f. c #D68459",
"g. c #D6845A",
"h. c #D88559",
"j. c #D98659",
"k. c #D9865A",
"l. c #D8865B",
"z. c #DA875B",
"x. c #DA875A",
"c. c #D8855B",
"v. c #D9865C",
"b. c #DB875D",
"n. c #DA875C",
"m. c #DC885B",
"M. c #DB885C",
"N. c #DC885C",
"B. c #DD895C",
"V. c #DE895D",
"C. c #DF8A5D",
"Z. c #DE895E",
"A. c #E08B5E",
"S. c #E18B5F",
"D. c #E18B5E",
"F. c #E18B5E",
"G. c #E28C5F",
"H. c #E38C5F",
"J. c #E38C60",
"K. c #E38D60",
"L. c #E48D60",
"P. c #E48D61",
"I. c #E58D61",
"U. c #E58E61",
"Y. c #E68E61",
"T. c #E68F61",
"R. c #E78F62",
"E. c #E88F62",
"W. c #E89062",
/* pixels */
"                                                      . . . . . . . . . .                                                       ",
"                                              . . . . X . . : , , > : @ o . . . .                                               ",
"                                        . . . % 4 V _ K X l 5.v.v.s.8.;.X.^ V 4 # . . .                                         ",
"                                    . . @ l ~ %.Z.R.%.> t w.P.P.R.P.R.P.W.E.R.Z.%.^ y @ . .                                     ",
"                                . . % C #.Z.R.R.R.p.4 : ;.R.P.P.R.H.P.H.R.J.P.R.T.R.Z.#.C % . .                                 ",
"                            . . @ V ;.J.R.P.J.P.P.V @ X.R.P.P.J.H.P.H.P.P.P.P.P.R.H.G.R.R.;.V @ . .                             ",
"                          . . y #.G.R.P.P.P.J.R.| @ L P.P.P.P.J.H.R.P.H.P.J.P.P.P.P.P.J.P.R.K.#.y X .                           ",
"                        . @ L v.R.P.J.P.P.P.R.s.2 4 s.R.P.P.P.J.H.H.H.P.H.H.P.P.P.P.P.J.J.J.K.R.l.L @ .                         ",
"                    . . > | P.R.R.J.J.G.G.R.J.L O X.R.G.H.G.G.R.R.R.H.H.R.G.H.H.R.R.G.H.J.J.K.J.P.P.X.: . .                     ",
"                  . . 4 %.R.P.J.K.J.K.R.G.R.5.= b G.P.R.R.R.H.G.H.H.G.R.H.G.R.G.G.H.G.R.R.J.R.J.P.P.R.-.4 . .                   ",
"                . . r 5.R.P.J.J.R.J.R.K.G.J.K % $.R.G.H.G.H.R.G.H.G.H.R.H.R.G.R.H.G.H.R.J.J.P.P.R.P.5.^ t . . .                 ",
"                . 4 5.R.P.P.P.J.K.J.J.J.R.w.: m J.P.R.H.G.R.K.J.R.R.H.G.G.R.H.G.R.R.H.G.P.P.R.P.%.V = @ 2 b , .                 ",
"              . > %.R.P.P.H.P.H.K.K.K.J.U.~ @ O.R.J.K.R.R.J.K.J.G.H.G.G.R.G.R.G.G.H.J.J.R.R.5.C # = J #.v.P.%.> .               ",
"            . @ | R.H.P.P.P.H.P.J.P.K.R.b.4 l C.P.J.J.J.K.K.K.R.G.R.R.K.R.H.K.K.G.R.J.J.B.^ : % J ;.P.P.P.J.R.| @ .             ",
"          . . L P.J.J.J.J.G.P.H.G.G.P.U.O.@ ^ R.K.J.K.K.K.K.K.J.G.G.G.K.G.G.K.K.G.P.P.%.z o x #.P.P.P.P.J.J.P.P.L . .           ",
"          . u s.G.G.C.C.G.C.G.G.G.Z.G.U.K % ;.J.C.G.C.G.C.G.C.C.G.G.G.C.C.G.C.G.G.d.Q % : _ b.J.Z.G.G.Z.H.Z.Z.P.s.l .           ",
"        . X | Z.Z.B.B.B.B.B.B.B.B.B.B.s.2 z B.B.Z.Z.x.Z.B.B.B.B.Z.Z.Z.Z.m.Z.Z.Z.O.y O b -.H.Z.Z.B.B.B.B.Z.Z.B.B.H.X.@ .         ",
"        . . K v.x.x.x.x.B.x.x.x.B.x.B.#.# ~ B.n.B.j.x.x.x.x.x.x.j.j.j.j.j.Z.p.Q % : _ a.B.j.j.j.n.n.n.n.v.j.x.x.j.d.m .         ",
"      . % t % #.x.d.d.j.s.d.d.d.s.d.x.Q # X.d.d.d.d.d.d.d.d.d.d.d.d.d.j.j.O.l o c %.j.j.d.d.j.j.d.d.s.d.d.d.d.j.d.j.#.% .       ",
"      . m #.% c e.r.r.r.y.y.y.y.y.y.y.x > w.y.s.y.y.y.y.y.y.y.y.y.y.a.7.W = = ~ 7.p.y.y.y.y.y.y.y.y.y.s.y.y.y.y.r.d.y.m .       ",
"    . O | a.L o ~ r.e.e.w.w.w.w.e.w.5., x w.w.w.w.w.w.e.e.e.w.w.e.e.X.y O x O.y.0.e.0.e.0.w.e.0.w.w.e.w.w.e.e.e.e.e.y. .O .     ",
"    . t 5.w.*.t % X.w.1.1.w.>.w.7.7.O.# L w.w.1.w.1.1.1.1.1.w.w.$.J % = Q 9.7.,.1.7.0.1.0.0.0.1.>.w.1.w.1.1.1.1.7.1.1.9.t .     ",
"    . L >.>.>.X.: 2 +.1.>.=.>.>.>.>.] o _ >.>.>.9.>.>.>.1.1.;.~ , o c X.1.,.9.,.,.,.,.,.0.=.=.=.>.>.>.>.>.>.>.>.1.1.1.1.L .     ",
"  . @  .=.=.=.=._ % 3 X.=.=.=.=.=.=.L #  .=.=.=.=.=.=.9.*.` t o 2 _ =.9.=.9.9.9.9.9.9.9.=.=.=.=.=.=.=.=.9.9.=.=.=.=.;.>. .@ .   ",
"  . 2 $.=.&.=.=.=.~ % - _ &.=.&.&.=.V % +.&.*.*.*.*.$.^ y o > H $.9.=.&.=.=.&.=.*.*.*.*.*.&.*.*.*.*.*.*.*.*.*.*.*.*.*.=.$.2 .   ",
"  . c *.&.&.%.$.$.*.] , @ c | $.=.&.u 2 $.*.&.$.| F 2 o : G X.*.&.%.$.*.$.&.$.%.&.&.&.&.&.&.&.&.&.&.&.&.&.&.&.&.&.&.&.&.&.c .   ",
"  . K &.$.$.$.$.$.$.$.X.v # @ t F ~ , > ~ L v 2 # o 4 L ..$.$.$.$.$.$.$.$.$.$.*.&.$.&.$.$.&.$.$.$.$.$.&.$.$.&.$.$.$.&.$.*.H .   ",
". X ~ $.@.$.$.@.$.+.$.$.$.] m 2 @ @ . . O @ % 3 V ] +.$.$.$.$.$.$.$.$.$.$.$.@.$.$.@.@.$.$.@.@.$.@.$.@.$.@.$.@.$.@.$.@.$.$.~ X . ",
". O ] #.+.+.+.+.+.+.+.+.+.@.+...] Q % 3 ! _ { +.$.+.+.+.+.+.+.+.+.+.+.+.+.$.+.+.@.@.O.@.@.@.+.@.+.+.+.+.@.@.@.@.@.@.@.O.@.] @ . ",
". % [ +.o.o.+.o.o.+.o.+.+.o.o.+.+...: x $.+.+.+.+.+...+.+.+...+.o.+.o.+.+.} } +.o.o.o.o.o.o.o.o.o.o.+.o.o.o.o.o.o.@.o.} / c X . ",
". = [ o.o.o...o.o.o.o.o...o.o.o.+.{ % c +.+...o.} +...+.} +...+.o.} +.....+.+.} o...o.o.o.o.o.o.o.o.} o.o.O.O...] I c > O @ X . ",
". . 4 Q [ ..o...} ....} ....} ..} ] % c } } } ..} ..} ..} ..} ..} ......} } o.} o.} } o.} } } o.} o.} [ ! G s , # o % r C ~ = . ",
". o % o % u C ! ] { } } ....} } ..[ = d } } { { } } } } } ..{  .} }  .} } } } } } } } } [ ( ! H m y , % o o = 3 v I ) { ..[ - . ",
". = / G y = O o % , t c B H T ! _ / % y [ { { { [ { [ { [ [ { [ [ ] ) ( / Q H F n x r , : # o O @ = 3 s F T ) [ }  .{ { { ` = . ",
". % (  .[ ' Y C s 3 : $ O o O O # # . @ ; > , , 2 3 3 , , , - - = % $ @ @ o o O @ = - 3 y c F P ! ` [ { { { { [ [ [ [ [ { ( # . ",
". o T [ [ ] [ [ [ ] ] / Q H F n v s + @ 4 3 3 , , , , , 2 3 3 t y u d v V G H Y / ( ) [ [ [ [ [ [ [ [ [ ' [ ' [ [ [ [ [ [ Q O . ",
". X H ] ' ' ' ' ' ' [ ' [ [ [ [ [ [ 3 - ) [ ) [ ) ) [ ) ' ' ' [ ' ' ' ' ' ' ' ' ' ' [ ' ' ' ' [ ' ' [ ' ' ' ' ' ` [ ' [ [ H X . ",
"  . n ' ) ' ' ) ) ) ) ) ) ) ) ) ( ' t = ( ) ) ) ) ) ' ) ) ) ) ) ' ' ' ' ' ' ' ' ) ' ) ) ) ) ) ) ) ) ) ) ) ) ' ) ) ) ) ) ) n .   ",
"  . t ) ) ) ) ) ( ) ) ) ) ( ( ) ) ) i @ T ) ) ) ) ) ) ( ) ) ) ) ( ( ( ' ' ' ( ( ) ( ) ) ) ) ( ) ) ) ) ) ( ) ( ) ) ) ) ( ) t .   ",
"  . * E ( ( ( ( ( ( ( ( ) ( ( ! T T v O H ) ( ( ( ( ( ( ( ( ( ( ( ( ( ( ( ( ( ( ) ( ( ( ( ( ( ( ( ( ( ( ( ) ( ) ( ( ) ( T - .   ",
"  . o H ( ( ( R R E ( ! S s , = # # + . ; d F T ( E E ( ( R E ( ( / E E R R ( ( R ( R ( R R R R R ( R ( ( ( R ( E E ( ( H o .   ",
"    . d R T R T R T M > X O - 3 t e r X o O X = e F T R R R T R E E E E E R T R T R R T R R R R R R T R T R T R R R T ( d .     ",
"    . - Y T T T H 3 X = d D T T T R Y = , S d 2 O o > j Y T R T T E Y T T T T T T T T T R T T T T T T T T T T T T R T T - .     ",
"    . o B T T Z % O u P Y T Y T T Y T 3 % P T Y A s = X & v P T Y Y T Y Y T Y T Y T Y T Y T Y T Y Y T Y T Y T T T Y T k o .     ",
"      . 3 Y B % $ k Y Y Y Y Y Y Y Y Y d X n Y Y Y Y P f = X - f U Y U Y Y Y U Y Y Y P Y Y Y Y Y Y Y Y Y P Y Y Y Y Y Y 3 .       ",
"      . O a % % B U P U P P P Y P P U M o i Y P P Y Y P D i = o - B U U P P P P P U P P P P P P P P Y P P P P P P U N O .       ",
"        . X @ h U H D P P D P D D P P D % ; P P P D D P P P A e @ o q Z P U D P P P P P P P D P D P P P P P P P P D 3 .         ",
"        . . e D D D D D D D D D D D D D 3 O N D D D D D D D P D M 3 o @ u N P D D D D D D P D D D P D D D D D D D j X .         ",
"          . & N D D D D N D D N D A D D a X i D A D A D A A D A S S M - X * j S D S A D A D A D A A D D D D A D N : .           ",
"          . . t A N Z A A Z Z A A N N A M # - N Z Z A N A A A Z N Z Z N e O o 1 M A A A A A N D A Z N Z Z Z Z Z q . .           ",
"            . X i N N N N N N N N N N N Z 1 O j N N N N N N N N N N N N N M < X @ e B N N N N N N N N N N N N i X .             ",
"              . O a N N N N N N N N N N N d X 5 N N N N k N N N N N M N M M M p & X * i M N M N N N N N N N a O .               ",
"                . $ a M M M M M k N k k M k & + h M M M M M k N M M M M M M M M M 1 @ X * i M M M k N k N a $ .                 ",
"                . . $ a k k h h k h k k k k e X w k k k k h h h M M g M g M M g M M g 1 O X * e g k k M p $ . .                 ",
"                  . . $ i h h h h h h g h h g $ $ j g h h h h h g M g M g M g M M g M M a 1 O X O * 1 1 + . .                   ",
"                    . . O 6 g g g g g g g g g 6 . 5 g g g g g g g g g p g g g g p g g p g g p 6 - + . . . .                     ",
"                        . X ; p g g p g p g g p & O 9 g g g p g p g g p g g g p g p g g g 0 g g p ; . .                         ",
"                          . . $ 6 p p g p p p g 6 X - p 0 p p g p p p p p p p p g p p p 0 g p 6 $ . .                           ",
"                            . . X * 6 p 0 0 p 0 0 * X 5 0 0 0 0 0 0 p 0 0 0 p 0 p 0 p 0 0 8 - X . .                             ",
"                                . . o * 6 9 0 0 0 8 + + 8 0 0 9 0 0 0 0 0 0 0 0 0 0 0 6 * X . .                                 ",
"                                    . . X $ ; 6 8 0 5 X & 9 9 9 0 8 9 0 0 9 8 8 6 ; $ . . .                                     ",
"                                        . . . X + * ; & . * 7 8 8 8 7 6 5 1 * + X . . .                                         ",
"                                              . . . . . . . O O O o X X . . . . .                                               ",
"                                                      . . . . . . . . . .                                                       "
};
